<?xml version="1.0" standalone="no"?>
<svg
  width="600"
  height="600"
  viewBox="0 0 600 600"
  xmlns="http://www.w3.org/2000/svg"
>
  <g transform="translate(300,300)">
    <path d="M107,-168C125.9,-133.6,119.5,-85.2,107,-51.8C94.5,-18.3,75.8,0.1,74.4,30.4C73.1,60.6,89.2,102.7,79.7,132.1C70.1,161.5,35.1,178.3,-5.8,186.2C-46.6,194.2,-93.3,193.4,-111.5,166.8C-129.7,140.2,-119.5,87.9,-140.9,41.3C-162.3,-5.4,-215.3,-46.2,-218,-81C-220.7,-115.8,-173.3,-144.5,-128.6,-170.4C-83.9,-196.4,-41.9,-219.7,1.1,-221.2C44.1,-222.7,88.2,-202.4,107,-168Z" fill="#ffffff" />
  </g>
</svg>
  